Coordinates
version=1
nRows=13
nColumns=36
inDegrees=yes

Units are S.I. units (second, meters, Newtons, ...)
If the header above contains a line with 'inDegrees', this indicates whether rotational values are in degrees (yes) or radians (no).

endheader
time	pelvis_tilt	pelvis_list	pelvis_rotation	pelvis_tx	pelvis_ty	pelvis_tz	hip_flexion_r	hip_adduction_r	hip_rotation_r	knee_angle_r	knee_angle_r_beta	ankle_angle_r	subtalar_angle_r	mtp_angle_r	hip_flexion_l	hip_adduction_l	hip_rotation_l	knee_angle_l	knee_angle_l_beta	ankle_angle_l	subtalar_angle_l	mtp_angle_l	lumbar_extension	lumbar_bending	lumbar_rotation	arm_flex_r	arm_add_r	arm_rot_r	elbow_flex_r	pro_sup_r	arm_flex_l	arm_add_l	arm_rot_l	elbow_flex_l	pro_sup_l
     44.48333330	      2.55781175	     -0.87659689	     -8.10941892	      0.69725302	      0.92481368	      0.79167518	     -3.39242582	      3.13058683	      0.13290924	     12.45734505	      0.21742169	     16.29011019	     -5.48211857	     -7.49999987	     24.51188000	     -4.28767319	     -7.89740641	     38.43285337	      0.67077983	      9.44765751	    -10.95753541	     -7.49999987	    -10.71482361	      0.39234046	      7.02416563	     16.84139123	    -15.89624116	      2.62655827	     28.63584759	     88.81212423	      6.45879694	     -8.07322620	      6.64558304	     17.93037530	     89.33783678
     44.50000000	      2.22414844	     -0.70197614	     -8.27505552	      0.69425374	      0.92121093	      0.79094944	     -4.22465214	      2.88316472	      0.14408715	     11.90750772	      0.20782522	     16.96520227	     -4.89585738	     -7.49999987	     25.44043496	     -4.17633311	     -7.83019556	     33.63470147	      0.58703628	      9.12660362	     -9.67964156	     -7.49999987	    -10.47184377	      0.39906734	      7.17938028	     17.58013738	    -16.05557045	      1.71976448	     29.02858879	     88.74248902	      6.40140253	     -7.82813486	      5.99820180	     17.61471619	     89.07493796
     44.51666670	      1.74927907	     -0.56916871	     -8.43881176	      0.69135371	      0.91563961	      0.78892907	     -5.03487076	      2.65945014	      0.03213670	     11.43943196	      0.19965575	     17.39913733	     -4.04492324	     -7.49999987	     26.33286573	     -4.07247561	     -7.50763689	     28.60808974	      0.49930536	      8.95058569	     -8.44209965	     -7.49999987	    -10.11644505	      0.47768768	      7.45984898	     17.94390334	    -16.08305064	     -1.12793228	     30.01146765	     92.93605058	      6.31809044	     -7.46485444	      4.41254638	     17.52019327	     92.47446270
     44.53333330	      1.44594737	     -0.45727267	     -8.52882689	      0.69078969	      0.91164510	      0.78556961	     -6.17638922	      2.33522040	     -0.59787464	     11.13077960	      0.19426875	     17.87854173	     -2.07281769	     -7.49999987	     26.79993389	     -3.82357458	     -6.83059839	     23.48989790	      0.40997606	      8.94977494	     -7.22744238	     -7.49999987	     -9.89330324	      0.62267104	      7.24503988	     18.75211907	    -16.25621927	     -1.65839555	     30.35750204	     92.56843783	      6.03651056	     -7.17616847	      3.88141654	     17.32021441	     92.11330415
     44.55000000	      0.49081701	     -0.28557458	     -8.86979231	      0.69379497	      0.90926686	      0.78261045	     -6.80313262	      2.07538010	     -0.26033449	     10.78412154	      0.18821843	     17.62876563	     -1.52432553	     -7.49999987	     27.76944891	     -3.81085228	     -6.72697077	     18.94939088	      0.33072926	      9.67463973	     -5.07756021	     -7.49999987	     -8.63870042	      0.74100315	      7.48580654	     18.83846602	    -16.40526454	     -2.38018572	     30.69300366	     92.26194332	      5.51684408	     -6.84857238	      3.36596139	     16.94637401	     91.77562907
     44.56666670	     -0.11750049	      0.03044789	     -9.11006447	      0.69733131	      0.90820857	      0.78048780	     -7.72746513	      1.55133540	     -0.27129518	     10.60029378	      0.18501003	     17.98528574	     -0.35507176	     -7.49999987	     28.29323764	     -3.52122672	     -6.52220355	     15.37192937	      0.26829078	     10.24476230	     -3.50580098	     -7.49999987	     -7.63055671	      0.60648790	      7.72186074	     18.58358241	    -16.41986025	     -3.62243985	     30.80174842	     92.62931615	      5.18264753	     -6.58349332	      3.20175792	     16.13489305	     92.04541449
     44.58333330	     -0.38294528	      0.43170793	     -9.19399412	      0.69848764	      0.90755983	      0.77916586	     -8.82767459	      0.90302724	     -0.35173110	     10.54684833	      0.18407723	     18.74379388	      0.59219650	     -7.49999987	     28.52632442	     -3.03855999	     -6.20726780	     13.14820903	      0.22947954	     10.69435973	     -2.52167317	     -7.49999987	     -7.04103221	      0.29856241	      7.51456115	     18.35391975	    -16.27329934	     -4.24665133	     30.84419118	     92.83038997	      4.68825022	     -6.50163423	      2.91334712	     15.67363915	     92.22977148
     44.60000000	     -0.64049200	      0.98909029	     -9.22800662	      0.69811814	      0.90576135	      0.77764206	     -9.64855385	      0.12402684	     -0.22849041	     10.76129542	      0.18782004	     19.59924723	      0.86540318	     -7.49999987	     28.85797887	     -2.39685442	     -5.92855379	     12.24744628	      0.21375826	     10.76623327	     -2.16008253	     -7.49999987	     -6.41783523	     -0.22351296	      7.22074631	     17.89648808	    -16.03229554	     -4.55433380	     30.74821661	     92.82082005	      4.21292674	     -6.59492182	      2.79895993	     15.30256333	     92.22869096
     44.61666670	     -0.66743223	      1.37389771	     -9.25778603	      0.69873935	      0.90162769	      0.77533818	    -10.52952849	     -0.53266669	     -0.00176067	     11.23830410	      0.19614541	     20.49321551	      1.06464683	     -7.49999987	     29.02629317	     -1.86786832	     -5.64787034	     12.59826178	      0.21988115	     10.72407618	     -2.20771490	     -7.49999987	     -6.10211969	     -0.68841141	      6.97117259	     17.42845262	    -15.72317390	     -4.84858511	     30.57234194	     92.87245890	      3.89716124	     -6.57409337	      2.71631735	     14.88315013	     92.29460900
     44.63333330	     -0.60734553	      1.85629828	     -9.24928258	      0.70118809	      0.89781230	      0.77330362	    -11.35265436	     -1.37915500	     -0.07201823	     12.02105397	      0.20980697	     21.16210828	      1.68666230	     -7.49999987	     29.03121946	     -1.12623846	     -5.17695786	     13.73291941	      0.23968466	      9.97482373	     -3.02656321	     -7.49999987	     -5.78880739	     -1.37347739	      7.23680247	     16.04565494	    -14.89773333	     -8.82618788	     31.18208606	     94.32633897	      4.17039897	     -6.44817856	      1.96813838	     13.56160801	     93.47714328
     44.65000000	     -0.39817061	      2.16900385	     -9.22183326	      0.70405592	      0.89549983	      0.77210540	    -12.27233710	     -2.09277925	      0.05445912	     12.94730795	      0.22597315	     21.00786595	      1.59730677	     -7.49999987	     28.73370968	     -0.50372755	     -5.00268499	     15.31891214	      0.26736545	      9.07123014	     -3.04084413	     -7.49999987	     -5.53939890	     -1.78051816	      6.95844104	     15.24079455	    -14.62843822	     -8.82636235	     30.97927453	     94.36905053	      3.69830432	     -6.40028150	      1.97865959	     13.37756976	     93.50291450
     44.66666670	     -0.27177890	      2.62448055	     -8.94244489	      0.70619408	      0.89439495	      0.77124212	    -12.82111139	     -2.93414014	     -0.26588228	     14.39557281	      0.25125014	     20.38306734	      0.87308130	     -7.49999987	     28.55119668	      0.53409049	     -3.67560154	     17.12644835	      0.29891291	      6.90376810	     -5.54006937	     -7.49999987	     -5.42237589	     -2.48968591	      6.76157342	     13.94599394	    -14.03842672	    -10.67868558	     31.45611634	     95.29504739	      3.92858360	     -6.61147556	      2.32853778	     12.81884123	     93.84400172
     44.68333330	     -0.16858252	      2.93609088	     -8.70022361	      0.70884382	      0.89603880	      0.77003243	    -13.13138035	     -3.60354672	     -0.29190066	     16.20047510	      0.28275163	     18.69830449	     -0.32839951	     -7.49999987	     28.20869887	      1.32644105	     -2.75525420	     18.88478661	      0.32960170	      4.95194888	     -6.76932450	     -7.49999987	     -5.21964508	     -3.02820099	      6.55630038	     12.63155542	    -13.54055778	    -11.76859225	     31.60131225	     95.51470692	      4.04591551	     -6.74616688	      2.77724953	     12.29334944	     93.51704243
